<svg width="48" height="43" viewBox="0 0 48 43" fill="none" xmlns="http://www.w3.org/2000/svg">
<path d="M16.0243 0.0279166H19.514V19.5419H16.0243V10.5805H3.4617V19.5419H0V0H3.4617V7.09091H16.0243V0.0279166Z" fill="#080A1E"/>
<path d="M39.3295 16.0523L41.1162 19.5698H37.2078L35.4212 16.0523L31.1499 7.70508L26.9065 16.0523L25.1198 19.5698H21.2114L22.9702 16.0523L31.1499 0L39.3295 16.0523Z" fill="#080A1E"/>
<path d="M16.7502 31.582C18.4252 32.6986 19.514 34.597 19.514 36.7466C19.514 40.2083 16.7223 43 13.2885 43H0V42.9721V23.4581H12.3114C15.2147 23.4581 17.5877 25.8032 17.5877 28.7344C17.5877 29.7674 17.2806 30.7445 16.7502 31.582ZM3.4617 26.9198V30.5211H12.3114C13.2885 30.5211 14.0981 29.7115 14.0981 28.7344C14.0981 27.7294 13.2885 26.9198 12.3114 26.9198H3.4617ZM13.2885 39.5104C14.796 39.5104 16.0523 38.282 16.0523 36.7466C16.0523 35.2391 14.796 34.0107 13.2885 34.0107H3.4617V39.5104H13.2885Z" fill="#080A1E"/>
<path d="M25.1083 42.9721H21.6465V23.4581H25.1083V42.9721Z" fill="#080A1E"/>
<path d="M27.917 23.4581H47.4309V26.9478H39.4187V43H35.9291V26.9478H27.917V23.4581Z" fill="#080A1E"/>
</svg>
